# xmcd
#
# Track frame offsets: 
#        150
#        25383
#        41852
#        58779
#        77148
#        95704
#        115166
#        131079
#        144410
#        162492
#
# Disc length: 2402 seconds
#
# Revision: 0
# Processed by: cddbd v1.5.2PL0 Copyright (c) Steve Scherf et al.
# Submitted via: ExactAudioCopyFreeDBPlugin 1.0
#
DISCID=9009600a
DTITLE=Billy TK Jnr - Three Sides to a Mirror
DYEAR=2006
DGENRE=New Zealand: Country/Blues
TTITLE0=Black Magic Woman
TTITLE1=Too Shy
TTITLE2=See Your Smile
TTITLE3=Pacific Woman
TTITLE4=Master Plan
TTITLE5=Which Way Is Up?
TTITLE6=K Road Strut
TTITLE7=Love Me All Over
TTITLE8=Tell Me Why
TTITLE9=Moana Nui
EXTD=
EXTT0=
EXTT1=
EXTT2=
EXTT3=
EXTT4=
EXTT5=
EXTT6=
EXTT7=
EXTT8=
EXTT9=
PLAYORDER=
